<?xml version="1.0" encoding="iso-8859-1"?>
<!-- Uploaded to: SVG Repo, www.svgrepo.com, Generator: SVG Repo Mixer Tools -->
<!-- CC0 licensed -->
<svg fill="#000000" height="800px" width="800px" version="1.1" id="Layer_1" xmlns="http://www.w3.org/2000/svg" xmlns:xlink="http://www.w3.org/1999/xlink" 
	 viewBox="0 0 512 512" xml:space="preserve">
<g>
	<g>
		<path d="M495.78,404.941L351.698,260.858c-6.967-6.97-18.284-6.974-25.256,0l-20.136,20.136l-28.819-28.819
			c48.04-60.351,45.216-149.511-11.908-206.634c-60.648-60.65-159.333-60.648-219.982,0c-60.794,60.794-60.797,159.185,0,219.983
			c57.146,57.147,146.31,59.926,206.634,11.908l28.819,28.819l-20.136,20.136c-6.97,6.967-6.974,18.284,0,25.256l144.083,144.083
			c21.622,21.622,56.623,21.629,78.25,0l12.534-12.533C517.404,461.569,517.41,426.568,495.78,404.941z M240.321,240.267
			c-46.833,46.834-122.631,46.838-169.47,0c-46.833-46.834-46.836-122.634,0-169.471c46.724-46.723,122.746-46.722,169.47,0
			C287.155,117.629,287.159,193.429,240.321,240.267z M470.524,457.934l-12.536,12.534c-7.661,7.664-20.067,7.667-27.736,0
			L298.797,339.014l40.273-40.273l131.455,131.457C478.188,437.861,478.193,450.267,470.524,457.934z"/>
	</g>
</g>
<g>
	<g>
		<path d="M193.739,137.673h-40.868l30.036-40.581c5.868-7.928,4.198-19.111-3.73-24.978c-7.927-5.868-19.111-4.198-24.978,3.73
			l-51.118,69.063c-8.713,11.769-0.281,28.484,14.355,28.484h40.867l-30.035,40.58c-5.868,7.928-4.198,19.111,3.73,24.978
			c7.935,5.872,19.115,4.192,24.978-3.73l51.118-69.063C216.805,154.387,208.374,137.673,193.739,137.673z"/>
	</g>
</g>
</svg>